<svg width="750" height="324" viewBox="0 0 750 324" fill="none" xmlns="http://www.w3.org/2000/svg">
<rect width="750" height="324" fill="black"/>
<path d="M105.984 118.032H153.744V124.464H113.712V130.56H138.72V136.896H113.712V143.28H153.744V150H105.984V118.032ZM157.631 118.032H165.791V143.184H202.943V150H157.631V118.032ZM113.952 199.328H148.848V180.368H113.952V199.328ZM105.744 174.032H147.264C151.872 174.032 154.416 174.896 155.52 176.816C156.24 178.016 156.576 180.176 156.576 183.44V197.84C156.576 201.872 155.712 203.888 153.552 205.04C152.064 205.856 150.816 206 146.16 206H105.744V174.032ZM162.131 174.032H209.891V180.464H169.859V186.56H194.867V192.896H169.859V199.28H209.891V206H162.131V174.032ZM261.058 174.032V180.752H220.882V186.704H252.754C256.882 186.704 259.762 187.856 260.962 190.016C261.634 191.216 261.922 192.992 261.922 195.824C261.922 201.68 261.25 203.696 258.85 204.944C257.074 205.904 256.018 206 249.442 206H213.682V199.664H254.242V193.424H223.234C219.73 193.424 217.714 193.136 216.562 192.416C214.258 190.976 213.154 188.24 213.154 183.68C213.154 176.048 215.794 174.032 225.778 174.032H261.058ZM267.159 174.032H314.919V180.464H274.887V186.56H299.895V192.896H274.887V199.28H314.919V206H267.159V174.032ZM318.806 174.032H330.758L363.974 199.808V174.032H372.182V206H359.606L326.966 180.752V206H318.806V174.032ZM377.765 174.032H425.141V180.848H385.973V186.56H410.885V192.896H385.973V206H377.765V174.032ZM471.41 186.704V180.848H437.714V186.704H471.41ZM429.506 174.032H468.482C476.786 174.032 478.994 175.904 478.994 183.008C478.994 185.312 478.706 186.368 477.698 187.424C476.594 188.672 474.866 189.392 471.41 190.016C475.826 190.736 477.314 191.168 478.418 192.128C479.282 192.848 479.474 193.568 479.474 196.88V206H471.458V193.184H437.714V206H429.506V174.032ZM484.715 174.032H532.475V180.464H492.443V186.56H517.451V192.896H492.443V199.28H532.475V206H484.715V174.032ZM536.362 174.032H548.314L581.53 199.808V174.032H589.738V206H577.162L544.522 180.752V206H536.362V174.032ZM602.521 199.568H637.561V180.752H602.521V199.568ZM645.289 183.296V197.936C645.289 201.248 644.041 204.08 642.265 204.848C640.537 205.616 637.993 206 634.777 206H604.153C597.625 206 594.841 203.6 594.841 197.984V183.296C594.841 179.6 595.273 177.632 596.281 176.48C597.865 174.704 600.505 174.032 605.449 174.032H636.361C642.409 174.032 645.289 177.008 645.289 183.296Z" fill="white"/>
</svg>
