<svg width="750" height="324" viewBox="0 0 750 324" fill="none" xmlns="http://www.w3.org/2000/svg">
<rect width="750" height="324" fill="black"/>
<path d="M188.67 199H168.174L144.624 165.668L137.016 173.483V199H121.333V122.709H137.016V154.126L166.466 122.709H187.065L155.804 154.126L188.67 199ZM231.422 201.122C220.518 201.122 212.185 198.155 206.423 192.22C198.694 184.939 194.829 174.45 194.829 160.751C194.829 146.776 198.694 136.287 206.423 129.282C212.185 123.347 220.518 120.38 231.422 120.38C242.326 120.38 250.659 123.347 256.421 129.282C264.116 136.287 267.963 146.776 267.963 160.751C267.963 174.45 264.116 184.939 256.421 192.22C250.659 198.155 242.326 201.122 231.422 201.122ZM246.483 180.626C250.175 175.968 252.021 169.343 252.021 160.751C252.021 152.194 250.158 145.586 246.432 140.928C242.74 136.235 237.736 133.889 231.422 133.889C225.107 133.889 220.07 136.218 216.309 140.876C212.548 145.534 210.667 152.159 210.667 160.751C210.667 169.343 212.548 175.968 216.309 180.626C220.07 185.284 225.107 187.613 231.422 187.613C237.736 187.613 242.757 185.284 246.483 180.626ZM307.868 187.976C311.629 187.976 314.683 187.562 317.029 186.733C321.48 185.146 323.706 182.196 323.706 177.883C323.706 175.364 322.602 173.414 320.394 172.034C318.185 170.688 314.717 169.498 309.99 168.463L301.916 166.651C293.98 164.857 288.493 162.908 285.457 160.803C280.316 157.283 277.745 151.78 277.745 144.292C277.745 137.46 280.229 131.784 285.198 127.264C290.167 122.743 297.465 120.483 307.092 120.483C315.132 120.483 321.981 122.623 327.64 126.901C333.333 131.146 336.318 137.322 336.594 145.431H321.273C320.997 140.841 318.996 137.581 315.27 135.648C312.785 134.372 309.697 133.733 306.005 133.733C301.899 133.733 298.621 134.562 296.171 136.218C293.721 137.874 292.496 140.186 292.496 143.153C292.496 145.879 293.704 147.915 296.119 149.261C297.672 150.158 300.984 151.21 306.057 152.418L319.203 155.575C324.965 156.955 329.313 158.801 332.246 161.113C336.801 164.702 339.078 169.895 339.078 176.692C339.078 183.662 336.404 189.459 331.056 194.083C325.742 198.672 318.22 200.967 308.489 200.967C298.552 200.967 290.736 198.707 285.043 194.187C279.35 189.632 276.503 183.386 276.503 175.45H291.72C292.203 178.935 293.152 181.54 294.566 183.266C297.154 186.406 301.588 187.976 307.868 187.976ZM406.312 122.709V136.218H383.486V199H367.441V136.218H344.513V122.709H406.312ZM460.812 169.602V122.709H477.013V169.602C477.013 177.71 475.753 184.025 473.234 188.545C468.542 196.826 459.588 200.967 446.372 200.967C433.157 200.967 424.185 196.826 419.458 188.545C416.939 184.025 415.68 177.71 415.68 169.602V122.709H431.88V169.602C431.88 174.846 432.501 178.676 433.743 181.092C435.675 185.37 439.885 187.51 446.372 187.51C452.825 187.51 457.017 185.37 458.949 181.092C460.191 178.676 460.812 174.846 460.812 169.602ZM449.943 103.352H463.452V115.618H449.943V103.352ZM429.24 103.352H442.749V115.618H429.24V103.352ZM506.877 199H492.022V122.709H515.21L529.081 182.696L542.849 122.709H565.777V199H550.923V147.397C550.923 145.914 550.94 143.843 550.975 141.187C551.009 138.495 551.026 136.425 551.026 134.976L536.586 199H521.11L506.773 134.976C506.773 136.425 506.791 138.495 506.825 141.187C506.86 143.843 506.877 145.914 506.877 147.397V199ZM633.684 165.668H596.625V185.284H638.859V199H581.046V122.709H636.996V136.218H596.625V152.418H633.684V165.668Z" fill="white"/>
</svg>
