<svg width="750" height="324" viewBox="0 0 750 324" fill="none" xmlns="http://www.w3.org/2000/svg">
<rect width="750" height="324" fill="black"/>
<path d="M121.074 122.968H131.115V160.026L168.174 122.968H182.407L150.783 153.608L183.287 199H169.882L143.278 160.854L131.115 172.5V199H121.074V122.968ZM224.59 120.897C238.012 120.897 247.95 125.211 254.402 133.837C259.44 140.565 261.959 149.174 261.959 159.664C261.959 171.016 259.078 180.453 253.315 187.976C246.552 196.809 236.908 201.226 224.383 201.226C212.686 201.226 203.49 197.361 196.796 189.632C190.826 182.179 187.842 172.759 187.842 161.372C187.842 151.09 190.395 142.291 195.502 134.976C202.058 125.59 211.754 120.897 224.59 120.897ZM225.625 192.013C234.7 192.013 241.256 188.769 245.293 182.282C249.365 175.761 251.4 168.273 251.4 159.819C251.4 150.882 249.054 143.688 244.361 138.236C239.703 132.785 233.32 130.059 225.211 130.059C217.344 130.059 210.926 132.767 205.957 138.185C200.988 143.567 198.504 151.521 198.504 162.045C198.504 170.464 200.626 177.572 204.87 183.369C209.149 189.132 216.067 192.013 225.625 192.013ZM281.006 174.467C281.247 178.78 282.265 182.282 284.06 184.974C287.476 190.011 293.497 192.53 302.123 192.53C305.988 192.53 309.507 191.978 312.682 190.874C318.824 188.735 321.895 184.905 321.895 179.384C321.895 175.243 320.601 172.293 318.013 170.533C315.39 168.808 311.284 167.307 305.694 166.03L295.395 163.701C288.666 162.183 283.904 160.509 281.109 158.681C276.279 155.506 273.863 150.762 273.863 144.447C273.863 137.615 276.227 132.008 280.954 127.626C285.681 123.244 292.375 121.053 301.036 121.053C309.007 121.053 315.77 122.985 321.325 126.85C326.915 130.68 329.71 136.822 329.71 145.275H320.031C319.514 141.204 318.41 138.081 316.719 135.907C313.579 131.939 308.248 129.955 300.726 129.955C294.653 129.955 290.288 131.232 287.631 133.785C284.974 136.339 283.646 139.306 283.646 142.688C283.646 146.414 285.198 149.14 288.304 150.865C290.34 151.969 294.946 153.35 302.123 155.006L312.785 157.438C317.926 158.612 321.895 160.216 324.689 162.252C329.52 165.806 331.936 170.965 331.936 177.728C331.936 186.147 328.865 192.168 322.723 195.791C316.615 199.414 309.507 201.226 301.398 201.226C291.944 201.226 284.543 198.81 279.194 193.979C273.846 189.183 271.224 182.679 271.327 174.467H281.006ZM400.308 122.968V132.025H374.688V199H364.232V132.025H338.612V122.968H400.308ZM420.959 122.968V169.964C420.959 175.485 421.994 180.074 424.064 183.731C427.135 189.252 432.311 192.013 439.592 192.013C448.322 192.013 454.257 189.028 457.396 183.059C459.087 179.815 459.933 175.45 459.933 169.964V122.968H470.388V165.668C470.388 175.019 469.128 182.213 466.609 187.251C461.986 196.429 453.256 201.019 440.42 201.019C427.584 201.019 418.871 196.429 414.282 187.251C411.763 182.213 410.504 175.019 410.504 165.668V122.968H420.959ZM445.337 104.956H455.016V115.722H445.337V104.956ZM428.257 104.956H437.936V115.722H428.257V104.956ZM486.122 122.968H500.873L522.715 187.251L544.401 122.968H558.997V199H549.215V154.126C549.215 152.573 549.249 150.003 549.318 146.414C549.387 142.826 549.422 138.978 549.422 134.872L527.735 199H517.539L495.697 134.872V137.201C495.697 139.064 495.732 141.911 495.801 145.741C495.904 149.537 495.956 152.332 495.956 154.126V199H486.122V122.968ZM575.663 122.968H631.096V132.284H585.704V155.368H627.68V164.167H585.704V189.942H631.872V199H575.663V122.968Z" fill="white"/>
</svg>
