<?xml version="1.0" encoding="UTF-8"?>
<svg id="Layer_1" data-name="Layer 1" xmlns="http://www.w3.org/2000/svg" viewBox="0 0 42.04 41.13">
  <defs>
    <style>
      .cls-1 {
        fill: #aad037;
      }
    </style>
  </defs>
  <path class="cls-1" d="M24.63,23.97c4.33-2.53,9.83-1.18,12.49,3.04,2.75,4.36,1.44,10.23-3.07,12.8-2.9,1.65-6.9,1.92-9.57-.28,4.7-4,4.7-11.18.06-15.21l.1-.34Z"/>
  <path class="cls-1" d="M6.48,29.69c.9.18,1.7.74,2.59,1.01,4.92,1.48,10.22-.99,12.08-5.77.26-.18.9.58,1.09.79,4.48,4.94,2.23,12.85-4,14.94-6.83,2.29-13.57-4.04-11.76-10.97Z"/>
  <path class="cls-1" d="M8.65,9.37c-.33,2.08-.4,3.97.31,5.99.87,2.47,3.25,4.86,5.68,5.8,1.01.39,2.1.45,3.05.86-2.22,5.24-8.18,7.17-13.16,4.35C-3.37,21.91-.27,9.74,8.65,9.37Z"/>
  <path class="cls-1" d="M23.87,19.24c-1.03-4.63,1.47-9.16,5.92-10.74,3.87-1.37,8.23.02,10.6,3.33,2.72,3.81,2,9.32-1.57,12.3-.28.05-1.19-1.81-1.46-2.18-2.54-3.5-7.23-4.89-11.32-3.52-.41.14-1.94.99-2.16.81Z"/>
  <path class="cls-1" d="M29.46,5.92c-6.2.28-10.44,6.39-9.05,12.34-6.28-.15-10.15-6.75-7.92-12.5C14.68.11,22.02-1.83,26.76,1.96c1.12.89,2.56,2.51,2.7,3.96Z"/>
</svg>