<svg width="24" height="24" viewBox="0 0 24 24" fill="none" xmlns="http://www.w3.org/2000/svg">
<path d="M12.0016 12.5752C11.8683 12.5752 11.7433 12.5542 11.6266 12.5122C11.5099 12.4708 11.4016 12.4002 11.3016 12.3002L6.7016 7.70018C6.51827 7.51685 6.4226 7.28751 6.4146 7.01218C6.40594 6.73751 6.5016 6.50018 6.7016 6.30018C6.88494 6.11685 7.11827 6.02518 7.4016 6.02518C7.68494 6.02518 7.91827 6.11685 8.1016 6.30018L12.0016 10.1752L15.9016 6.30018C16.0849 6.11685 16.3139 6.02085 16.5886 6.01218C16.8639 6.00418 17.1016 6.10018 17.3016 6.30018C17.4849 6.48351 17.5766 6.71685 17.5766 7.00018C17.5766 7.28351 17.4849 7.51685 17.3016 7.70018L12.7016 12.3002C12.6016 12.4002 12.4933 12.4708 12.3766 12.5122C12.2599 12.5542 12.1349 12.5752 12.0016 12.5752ZM12.0016 18.5752C11.8683 18.5752 11.7433 18.5542 11.6266 18.5122C11.5099 18.4708 11.4016 18.4002 11.3016 18.3002L6.7016 13.7002C6.51827 13.5168 6.4226 13.2875 6.4146 13.0122C6.40594 12.7375 6.5016 12.5002 6.7016 12.3002C6.88494 12.1168 7.11827 12.0252 7.4016 12.0252C7.68494 12.0252 7.91827 12.1168 8.1016 12.3002L12.0016 16.1752L15.9016 12.3002C16.0849 12.1168 16.3139 12.0208 16.5886 12.0122C16.8639 12.0042 17.1016 12.1002 17.3016 12.3002C17.4849 12.4835 17.5766 12.7168 17.5766 13.0002C17.5766 13.2835 17.4849 13.5168 17.3016 13.7002L12.7016 18.3002C12.6016 18.4002 12.4933 18.4708 12.3766 18.5122C12.2599 18.5542 12.1349 18.5752 12.0016 18.5752Z" fill="#ADE252"/>
</svg>
