<?xml version="1.0" standalone="no"?>
<!DOCTYPE svg PUBLIC "-//W3C//DTD SVG 20010904//EN"
 "http://www.w3.org/TR/2001/REC-SVG-20010904/DTD/svg10.dtd">
<svg version="1.0" xmlns="http://www.w3.org/2000/svg"
 width="260.000000pt" height="260.000000pt" viewBox="0 0 260.000000 260.000000"
 preserveAspectRatio="xMidYMid meet">
<metadata>
Created by potrace 1.14, written by Peter Selinger 2001-2017
</metadata>
<g transform="translate(0.000000,260.000000) scale(0.100000,-0.100000)"
fill="#000000" stroke="none">
<path d="M1102 1653 c-26 -66 -222 -594 -222 -598 0 -3 26 -5 58 -5 l58 0 115
307 c63 168 116 310 117 315 2 4 -23 8 -56 8 -56 0 -60 -2 -70 -27z"/>
<path d="M660 1345 l0 -295 100 0 100 0 0 295 0 295 -100 0 -100 0 0 -295z"/>
<path d="M1240 1345 l0 -295 105 0 105 0 0 149 c0 91 -6 180 -15 228 -8 43
-15 82 -15 88 0 20 18 -12 33 -60 9 -27 41 -130 72 -227 l56 -178 170 0 169 0
0 295 0 295 -100 0 -100 0 0 -142 c0 -86 6 -175 15 -222 8 -44 13 -81 10 -84
-6 -6 -5 -10 -78 233 l-64 210 -181 3 -182 2 0 -295z"/>
</g>
</svg>
