<svg width="1463" height="74" viewBox="0 0 1463 74" fill="none" xmlns="http://www.w3.org/2000/svg">
<path d="M1430 3.94767V1.53625H1462.5V3.94767H1460.98C1457.49 3.94767 1455.2 4.24472 1454.11 4.83884C1453.03 5.39801 1452.3 6.46393 1451.91 8.03659C1451.56 9.60925 1451.39 13.3487 1451.39 19.2549V54.1156C1451.39 59.7072 1451.51 63.3768 1451.75 65.1242C1452.03 66.8366 1452.73 68.1122 1453.85 68.951C1455 69.7897 1457.19 70.2091 1460.4 70.2091H1462.5V72.6205H1430V70.2091H1432.1C1435.14 70.2091 1437.23 69.8247 1438.39 69.0558C1439.57 68.287 1440.33 67.0987 1440.64 65.4911C1440.95 63.8486 1441.11 60.0567 1441.11 54.1156V19.2549C1441.11 13.5933 1440.95 9.94125 1440.64 8.2987C1440.33 6.65614 1439.63 5.52033 1438.54 4.89126C1437.46 4.2622 1435.12 3.94767 1431.52 3.94767H1430Z" fill="#FFFFFF"/>
<path d="M1351.12 51.7041L1350.6 72.6205H1290.21V70.2091H1292.31C1295.35 70.2091 1297.44 69.8247 1298.6 69.0558C1299.79 68.287 1300.54 67.0987 1300.85 65.4911C1301.2 63.8486 1301.38 60.0567 1301.38 54.1156V19.2549C1301.38 13.5933 1301.2 9.94125 1300.85 8.2987C1300.54 6.65614 1299.84 5.52033 1298.75 4.89126C1297.71 4.2622 1295.38 3.94767 1291.78 3.94767H1290.21V1.53625H1324.34V3.94767H1321.19C1317.7 3.94767 1315.41 4.24472 1314.32 4.83884C1313.24 5.39801 1312.51 6.46393 1312.12 8.03659C1311.77 9.60925 1311.6 13.3487 1311.6 19.2549V56.4745C1311.6 61.6119 1311.74 64.8271 1312.02 66.1202C1312.3 67.4133 1313.05 68.4268 1314.27 69.1607C1315.53 69.8596 1318.2 70.2091 1322.29 70.2091H1327.69C1332.06 70.2091 1335.29 69.8247 1337.39 69.0558C1339.52 68.287 1341.53 66.6095 1343.42 64.0233C1345.34 61.4372 1347.09 57.3308 1348.66 51.7041H1351.12Z" fill="#FFFFFF"/>
<path d="M1183.45 46.4085H1156.45L1154.62 50.9168C1151.89 57.452 1150.53 61.7157 1150.53 63.7077C1150.53 65.8396 1151.24 67.4646 1152.68 68.583C1154.15 69.6664 1156.02 70.2081 1158.29 70.2081V72.6195H1137.16V70.2081C1140.31 69.7188 1142.65 68.6179 1144.19 66.9055C1145.72 65.1581 1147.58 61.506 1149.74 55.9493C1149.92 55.425 1150.76 53.3981 1152.26 49.8683L1172.91 0.539185H1174.96L1198.7 56.9977L1201.95 64.4416C1202.69 66.1191 1203.67 67.4472 1204.89 68.4257C1206.15 69.3693 1208.02 69.9634 1210.5 70.2081V72.6195H1182.56V70.2081C1185.98 70.2081 1188.29 69.9634 1189.48 69.4742C1190.7 68.9499 1191.31 67.9364 1191.31 66.4337C1191.31 65.6648 1190.51 63.3757 1188.9 59.5664L1183.45 46.4085ZM1182.56 44.0495L1169.98 13.7495L1157.45 44.0495H1182.56Z" fill="#FFFFFF"/>
<path d="M1060.62 72.6195H1041.49C1038.1 70.243 1032.91 64.0223 1025.92 53.9572C1023.68 50.742 1021.36 47.6666 1018.94 44.731C1016.53 41.7604 1014.87 39.9605 1013.96 39.3315C1013.06 38.6675 1011.64 38.3355 1009.72 38.3355H1006.89V54.1145C1006.89 59.7062 1007.01 63.3757 1007.25 65.1231C1007.53 66.8356 1008.23 68.1112 1009.35 68.9499C1010.5 69.7887 1012.69 70.2081 1015.9 70.2081H1019.31V72.6195H985.29V70.2081H987.597C990.637 70.2081 992.734 69.8236 993.887 69.0548C995.075 68.2859 995.827 67.0977 996.141 65.4901C996.456 63.8475 996.613 60.0557 996.613 54.1145V19.2538C996.613 13.5923 996.456 9.9402 996.141 8.29764C995.827 6.65509 995.128 5.51928 994.044 4.89021C992.961 4.26115 990.62 3.94662 987.02 3.94662H985.814V1.5352L995.984 1.01098C1002.76 0.69645 1008.15 0.539185 1012.13 0.539185C1018.91 0.539185 1024.41 1.16825 1028.64 2.42638C1032.91 3.68451 1036.35 5.74644 1038.97 8.61218C1041.59 11.4779 1042.9 14.9028 1042.9 18.8869C1042.9 23.535 1041.19 27.5016 1037.76 30.7867C1034.34 34.0718 1029.31 36.1163 1022.67 36.9201C1025.64 38.3529 1030.43 43.5252 1037.03 52.437C1042.41 59.6712 1046.64 64.4067 1049.72 66.6434C1052.79 68.88 1056.43 70.0683 1060.62 70.2081V72.6195ZM1006.89 35.9241C1009.51 35.8542 1012.22 35.7493 1015.01 35.6095C1017.81 35.4697 1020.24 35.0853 1022.3 34.4562C1024.36 33.8272 1026.02 32.9185 1027.28 31.7303C1028.57 30.5071 1029.59 28.917 1030.32 26.9599C1031.05 25.0028 1031.42 22.5914 1031.42 19.7256C1031.42 14.7281 1030.16 10.7265 1027.65 7.721C1025.17 4.71547 1019.73 3.21271 1011.34 3.21271C1010.05 3.21271 1008.57 3.2826 1006.89 3.4224V35.9241Z" fill="#FFFFFF"/>
<path d="M905.237 1.53625L905.814 19.2549H903.35C902.861 15.3757 901.76 12.1779 900.048 9.66167C898.37 7.11046 896.605 5.52033 894.753 4.89126C892.901 4.2622 889.773 3.94767 885.369 3.94767H871.478V34.0903H878.135C882.434 34.0903 885.282 33.3739 886.68 31.941C888.113 30.4732 888.829 27.5551 888.829 23.1866H891.45V48.2443H888.829C888.829 45.2038 888.515 42.8099 887.886 41.0625C887.292 39.2801 886.383 38.0744 885.16 37.4453C883.971 36.7813 881.63 36.4493 878.135 36.4493H871.478V54.1156C871.478 59.7072 871.617 63.3768 871.897 65.1242C872.177 66.8366 872.875 68.1122 873.994 68.951C875.147 69.7897 877.349 70.2091 880.599 70.2091H883.01V72.6205H849.984V70.2091H852.186C855.227 70.2091 857.324 69.8247 858.477 69.0558C859.665 68.287 860.417 67.0987 860.731 65.4911C861.081 63.8486 861.255 60.0567 861.255 54.1156V19.2549C861.255 13.5933 861.081 9.94125 860.731 8.2987C860.417 6.65614 859.717 5.52033 858.634 4.89126C857.586 4.2622 855.262 3.94767 851.662 3.94767H850.404V1.53625H905.237Z" fill="#FFFFFF"/>
<path d="M599.856 36.6059C599.856 25.6322 603.526 16.8253 610.865 10.1852C618.204 3.54504 627.36 0.224976 638.334 0.224976C649.413 0.224976 658.656 3.51009 666.065 10.0803C673.509 16.6505 677.231 25.6147 677.231 36.9728C677.231 47.9814 673.666 56.8932 666.537 63.7081C659.443 70.5229 650.094 73.9304 638.491 73.9304C627.203 73.9304 617.942 70.5229 610.708 63.7081C603.473 56.8932 599.856 47.8591 599.856 36.6059ZM611.861 36.9728C611.861 48.4008 614.133 56.9806 618.676 62.712C623.254 68.4435 630.104 71.3092 639.225 71.3092C647.228 71.3092 653.554 68.4435 658.202 62.712C662.85 56.9806 665.174 48.4358 665.174 37.0777C665.174 26.0341 662.885 17.5767 658.307 11.7054C653.729 5.79919 647.089 2.84608 638.386 2.84608C629.824 2.84608 623.254 5.72929 618.676 11.4957C614.133 17.2272 611.861 25.7196 611.861 36.9728Z" fill="#FFFFFF"/>
<path d="M485.647 39.1752V54.1155C485.647 59.7072 485.77 63.3767 486.014 65.1241C486.294 66.8366 487.01 68.1122 488.163 68.9509C489.317 69.7897 491.484 70.2091 494.664 70.2091H497.023V72.6205H464.469V70.2091H466.356C469.396 70.2091 471.493 69.8246 472.647 69.0558C473.835 68.2869 474.586 67.0987 474.901 65.4911C475.215 63.8485 475.373 60.0567 475.373 54.1155V19.2549C475.373 13.5933 475.215 9.94122 474.901 8.29866C474.586 6.65611 473.887 5.5203 472.804 4.89123C471.72 4.26217 469.379 3.94764 465.779 3.94764H464.469V1.53622L473.38 1.22169C480.51 0.977055 486.067 0.854736 490.051 0.854736C497.39 0.854736 503.034 1.43138 506.983 2.58466C510.967 3.73795 514.217 5.78241 516.733 8.71804C519.285 11.6537 520.56 15.3582 520.56 19.8315C520.56 23.7107 519.687 27.1356 517.939 30.1062C516.227 33.0768 513.745 35.331 510.495 36.8687C507.28 38.4064 501.601 39.1752 493.458 39.1752H485.647ZM485.647 36.5541H490.732C494.821 36.5541 498.124 36.1522 500.64 35.3484C503.156 34.5097 505.253 32.7797 506.931 30.1586C508.608 27.5375 509.447 24.3049 509.447 20.4606C509.447 14.5893 507.996 10.2907 505.096 7.56476C502.23 4.80386 497.564 3.42342 491.099 3.42342C488.723 3.42342 486.905 3.49331 485.647 3.6331V36.5541Z" fill="#FFFFFF"/>
<path d="M358.624 1.53625H382.372V3.94767C379.226 4.15736 376.867 4.87379 375.295 6.09697C373.757 7.2852 372.813 8.6307 372.464 10.1335C372.114 11.6362 371.94 14.5544 371.94 18.8879V42.5303C371.94 48.5763 371.695 53.0671 371.206 56.0027C370.751 58.9384 369.388 61.8216 367.117 64.6524C364.88 67.4832 361.717 69.7373 357.628 71.4148C353.54 73.0923 348.822 73.9311 343.475 73.9311C337.149 73.9311 331.784 72.8652 327.381 70.7333C323.012 68.5666 319.885 65.7882 317.997 62.3982C316.145 58.9733 315.219 54.3951 315.219 48.6637L315.271 41.377V19.2549C315.271 13.5933 315.097 9.94125 314.747 8.2987C314.433 6.65614 313.734 5.52033 312.65 4.89126C311.602 4.2622 309.278 3.94767 305.678 3.94767H304.053V1.53625H336.502V3.94767H335.087C331.592 3.94767 329.303 4.24472 328.22 4.83884C327.136 5.39801 326.402 6.46393 326.018 8.03659C325.668 9.60925 325.494 13.3487 325.494 19.2549V41.6391C325.494 49.3976 325.843 54.9019 326.542 58.152C327.276 61.4022 329.303 64.2505 332.623 66.6968C335.943 69.1082 340.364 70.3139 345.886 70.3139C350.219 70.3139 354.151 69.5101 357.681 67.9025C361.246 66.26 363.884 64.233 365.597 61.8216C367.344 59.3752 368.41 56.8764 368.794 54.3252C369.179 51.7391 369.371 47.6851 369.371 42.1633V17.9443C369.371 13.9253 369.144 11.112 368.69 9.5044C368.235 7.89679 367.257 6.62119 365.754 5.6776C364.251 4.734 361.875 4.15736 358.624 3.94767V1.53625Z" fill="#FFFFFF"/>
<path d="M228.884 72.6195H209.75C206.36 70.243 201.17 64.0223 194.181 53.9572C191.944 50.742 189.62 47.6666 187.209 44.731C184.797 41.7604 183.137 39.9605 182.228 39.3315C181.32 38.6675 179.904 38.3355 177.982 38.3355H175.152V54.1145C175.152 59.7062 175.274 63.3757 175.518 65.1231C175.798 66.8356 176.497 68.1112 177.615 68.9499C178.769 69.7887 180.953 70.2081 184.168 70.2081H187.576V72.6195H153.554V70.2081H155.86C158.901 70.2081 160.998 69.8236 162.151 69.0548C163.339 68.2859 164.09 67.0977 164.405 65.4901C164.72 63.8475 164.877 60.0557 164.877 54.1145V19.2538C164.877 13.5923 164.72 9.9402 164.405 8.29764C164.09 6.65509 163.392 5.51928 162.308 4.89021C161.225 4.26115 158.883 3.94662 155.284 3.94662H154.078V1.5352L164.248 1.01098C171.028 0.69645 176.41 0.539185 180.394 0.539185C187.174 0.539185 192.678 1.16825 196.907 2.42638C201.17 3.68451 204.613 5.74644 207.234 8.61218C209.855 11.4779 211.165 14.9028 211.165 18.8869C211.165 23.535 209.453 27.5016 206.028 30.7867C202.603 34.0718 197.571 36.1163 190.931 36.9201C193.901 38.3529 198.689 43.5252 205.294 52.437C210.676 59.6712 214.905 64.4067 217.98 66.6434C221.056 68.88 224.69 70.0683 228.884 70.2081V72.6195ZM175.152 35.9241C177.773 35.8542 180.481 35.7493 183.277 35.6095C186.073 35.4697 188.502 35.0853 190.564 34.4562C192.626 33.8272 194.286 32.9185 195.544 31.7303C196.837 30.5071 197.85 28.917 198.584 26.9599C199.318 25.0028 199.685 22.5914 199.685 19.7256C199.685 14.7281 198.427 10.7265 195.911 7.721C193.429 4.71547 187.995 3.21271 179.607 3.21271C178.314 3.21271 176.829 3.2826 175.152 3.4224V35.9241Z" fill="#FFFFFF"/>
<path d="M44.5347 42.2673H75.2016V44.7836C71.8116 44.7836 69.5051 45.1331 68.2819 45.832C67.0937 46.496 66.3073 47.6318 65.9229 49.2395C65.5385 50.8121 65.3462 54.6564 65.3462 60.7723V68.3211C64.5075 68.1813 63.7561 68.1114 63.0921 68.1114C60.4011 68.1114 56.8714 68.9327 52.5029 70.5752C46.5617 72.8119 41.0574 73.9302 35.9899 73.9302C25.82 73.9302 17.3626 70.5927 10.6176 63.9176C3.87268 57.2076 0.500195 48.7152 0.500195 38.4405C0.500195 28.2706 3.71541 19.3589 10.1458 11.7053C16.5763 4.05166 25.3133 0.224854 36.3569 0.224854C45.8627 0.224854 53.726 3.71966 59.9468 10.7093C61.1001 8.2629 61.834 5.62432 62.1485 2.79353H64.6648V26.5407H62.1485C61.135 19.2366 58.3566 13.4527 53.8134 9.18902C49.3051 4.92536 43.8183 2.79353 37.3529 2.79353C30.6778 2.79353 24.859 5.27484 19.8963 10.2375C14.9337 15.2001 12.4524 24.007 12.4524 36.6582C12.4524 49.2744 14.8464 58.2211 19.6342 63.4982C24.4221 68.7404 30.3633 71.3616 37.4577 71.3616C41.0923 71.3616 44.3949 70.6276 47.3655 69.1598C50.3361 67.6571 52.3631 65.8398 53.4464 63.7079C54.5298 61.5761 55.0715 58.8851 55.0715 55.6349C55.0715 51.8256 54.8094 49.2919 54.2852 48.0337C53.7959 46.7407 53.0271 45.8844 51.9786 45.4651C50.9302 45.0107 49.008 44.7836 46.2122 44.7836H44.5347V42.2673Z" fill="#FFFFFF"/>
</svg>
