<?xml version="1.0" encoding="UTF-8"?>
<svg id="Layer_2" data-name="Layer 2" xmlns="http://www.w3.org/2000/svg" viewBox="0 0 357.83 253.32">
  <defs>
    <style>
      .cls-1 {
        fill: #fff;
      }
    </style>
  </defs>
  <g id="Capa_1" data-name="Capa 1">
    <g>
      <g>
        <path class="cls-1" d="M1.31,103.79c.09-7.02.22-15.52.4-25.48.18-9.96.27-18.45.27-25.48,0-5.07-.05-10.61-.13-16.61-.09-6-.18-12.07-.27-18.21-.09-3.02-.16-5.89-.2-8.6-.05-2.71-.07-5.18-.07-7.41h52.3c10.49,0,18.9.56,25.21,1.67,6.31,1.11,11.27,3.4,14.88,6.87,3.6,3.47,5.4,8.67,5.4,15.61,0,5.34-1.05,9.65-3.14,12.94-2.09,3.29-6.03,5.85-11.81,7.67-5.78,1.82-14.19,2.96-25.21,3.4v2.13c11.38.45,20.12,1.49,26.21,3.13,6.09,1.65,10.34,4.05,12.74,7.21,2.4,3.16,3.6,7.49,3.6,13.01,0,7.38-1.62,13.1-4.87,17.14-3.25,4.05-8.14,6.89-14.68,8.54-6.54,1.65-15.19,2.47-25.95,2.47H1.31ZM49.2,42.83c2.49,0,4.54-.64,6.14-1.93,1.6-1.29,2.4-3.4,2.4-6.34s-.82-4.85-2.47-6c-1.65-1.15-3.85-1.73-6.6-1.73h-8v16.01h8.54ZM49.47,76.04c2.4,0,4.45-.24,6.14-.73,1.69-.49,3-1.33,3.94-2.54.93-1.2,1.4-2.87,1.4-5,0-2.85-1.02-4.85-3.07-6-2.05-1.16-4.98-1.73-8.81-1.73h-8.41v16.01h8.81Z"/>
        <path class="cls-1" d="M105.39,103.79c.09-3.74.22-9.25.4-16.54.09-5.69.15-11.41.2-17.14.04-5.74.07-11.45.07-17.14,0-6.94-.09-17.25-.27-30.95-.09-3.38-.16-6.74-.2-10.07-.05-3.34-.11-6.65-.2-9.94h54.57c10.41,0,18.85.76,25.35,2.27,6.49,1.51,11.47,4.25,14.94,8.21,3.47,3.96,5.2,9.59,5.2,16.88s-1.22,12.83-3.67,16.88c-2.45,4.05-6.25,6.92-11.41,8.61-5.16,1.69-12.05,2.53-20.68,2.53v2.4c12.98,0,22.19,1.6,27.62,4.8,5.42,3.2,8.14,8.23,8.14,15.07,0,2.58.44,6.65,1.33,12.21.89,5.56,1.78,9.54,2.67,11.94h-43.36c-.27-2.31-.58-5.47-.93-9.47-.36-3.65-.53-8.23-.53-13.74,0-2.67-.18-4.67-.53-6-.36-1.33-1.11-2.31-2.27-2.93-1.16-.62-3.07-.93-5.74-.93h-10.54c-.09,1.78-.13,5.98-.13,12.61s.04,12.39.13,17.28v3.2h-40.16ZM153.15,48.83c3.29,0,5.91-.78,7.87-2.33,1.96-1.56,2.94-4.2,2.94-7.94,0-2.49-.47-4.45-1.4-5.87-.93-1.42-2.22-2.42-3.87-3-1.65-.58-3.67-.87-6.07-.87h-7.6v20.01h8.14Z"/>
        <path class="cls-1" d="M212.88,103.79c.44-11.29.67-28.28.67-50.96s-.22-39.53-.67-50.83h40.02c-.45,11.3-.67,28.2-.67,50.7s.22,39.71.67,51.1h-40.02Z"/>
        <path class="cls-1" d="M310.47,105.4c-11.3,0-20.61-1-27.95-3-7.34-2-13.16-5.54-17.48-10.61-4.31-5.07-6.92-12.14-7.8-21.21l43.76-3.47c0,3.11.69,5.85,2.07,8.21,1.38,2.36,4.02,3.53,7.94,3.53h6.27v-8.01c0-2.22-.22-3.91-.67-5.07-.45-1.15-1.36-2.02-2.74-2.6-1.38-.58-3.54-.87-6.47-.87-12.72,0-22.61-1.22-29.68-3.67-7.07-2.44-11.94-5.76-14.61-9.94s-4-9.34-4-15.48c0-10.85,4.42-19.1,13.27-24.75,8.85-5.65,20.43-8.47,34.75-8.47,16.45,0,28.79,3.36,37.02,10.07,8.23,6.72,12.78,17.23,13.67,31.55l-40.29,2.54v-2c-.09-3.65-.33-6.38-.73-8.21-.4-1.82-1.42-3.27-3.07-4.34-1.65-1.07-4.29-1.6-7.94-1.6h-6.4c0,2.13.04,3.73.13,4.8v4.94c0,2.31.24,4.16.73,5.54.49,1.38,1.42,2.47,2.8,3.27,1.38.8,3.4,1.2,6.07,1.2,13.43,0,23.59.89,30.48,2.67,6.89,1.78,11.54,4.43,13.94,7.94,2.4,3.51,3.6,8.34,3.6,14.47,0,6.85-2.05,12.72-6.14,17.61-4.09,4.89-9.67,8.61-16.74,11.14-7.07,2.53-15.01,3.8-23.81,3.8Z"/>
      </g>
      <g>
        <path class="cls-1" d="M26.6,213.82c.53-21.88.8-38.24.8-49.09,0-9.16-.09-16.76-.27-22.81-6.85,0-18.6.18-27.14.53v-30.42h98.48v30.42c-7.29-.35-23.23-.53-31.59-.53v8.07c0,3.69-.05,7.58-.13,11.67v6.67c0,15.39.13,30.55.4,45.49H26.6Z"/>
        <path class="cls-1" d="M121.91,210.36c-7.2-3.56-12.41-9.18-15.61-16.88-3.2-7.69-4.8-17.94-4.8-30.75s1.64-22.77,4.94-30.42c3.29-7.65,8.18-13.85,15.48-16.81,8.56-3.47,27.79-5.34,54.05-5.34s43.99,1,53.3,5.41c7.35,3.48,12.63,9.29,16.01,17.08,3.38,7.78,5.07,18.08,5.07,30.88s-1.71,22.48-5.14,30.08c-3.43,7.61-8.72,13.19-15.88,16.74-4.37,2.17-25.94,5.33-48.85,5.33s-51.36-1.78-58.56-5.33ZM179.11,187.68h7.2v-23.21c0-4.62-.31-8.85-.93-12.67-.62-3.82-1.71-6.96-3.27-9.41-1.56-2.45-3.71-3.67-6.47-3.67h-15.5v22.68c0,4.63.33,8.9,1,12.81.67,3.91,1.85,7.14,3.54,9.67,1.69,2.54,11.68,3.8,14.43,3.8Z"/>
        <path class="cls-1" d="M254.93,213.82c.44-18.94.67-35.89.67-50.83s-.22-32.02-.67-50.96h40.82c-.36,15.03-.53,30.33-.53,45.89,0,9.7.09,18.1.27,25.22,10.32,0,43.22-.04,48.38-.13,1.96,0,3.89-.02,5.8-.07,1.91-.04,3.71-.07,5.4-.07l-2.94,30.95h-97.21Z"/>
      </g>
      <rect class="cls-1" y="223.27" width="316.99" height="24.18"/>
      <path class="cls-1" d="M339.62,253.32c-4.32,0-7.72-.55-10.18-1.65-2.46-1.1-4.25-2.88-5.35-5.35-1.1-2.46-1.65-5.85-1.65-10.18s.55-7.67,1.65-10.14c1.1-2.46,2.88-4.24,5.35-5.33,2.46-1.09,5.86-1.63,10.18-1.63s7.72.54,10.18,1.63c2.46,1.09,4.24,2.86,5.35,5.33,1.1,2.46,1.65,5.84,1.65,10.14s-.55,7.72-1.65,10.18c-1.1,2.46-2.89,4.25-5.35,5.35-2.46,1.1-5.86,1.65-10.18,1.65ZM339.62,250.78c3.66,0,6.55-.47,8.65-1.4,2.1-.93,3.62-2.45,4.55-4.57.93-2.12,1.4-5.01,1.4-8.68s-.47-6.55-1.4-8.65c-.93-2.11-2.45-3.62-4.55-4.55-2.1-.93-4.99-1.4-8.65-1.4s-6.55.47-8.65,1.4c-2.1.93-3.62,2.45-4.55,4.55-.93,2.1-1.4,4.99-1.4,8.65s.47,6.56,1.4,8.68c.93,2.12,2.45,3.64,4.55,4.57,2.1.93,4.99,1.4,8.65,1.4ZM329.23,247.35c.03-.69.04-1.37.04-2.04s.01-1.34.04-2c.03-1.17.05-2.35.06-3.52.01-1.17.02-2.35.02-3.52s0-2.34-.02-3.5c-.01-1.16-.04-2.33-.06-3.5-.03-.69-.04-1.37-.04-2.06s-.01-1.37-.04-2.06h11.9c2.26,0,4.11.17,5.54.49,1.43.33,2.53.93,3.29,1.8.76.87,1.14,2.1,1.14,3.67s-.27,2.8-.82,3.67c-.54.87-1.37,1.5-2.49,1.87-1.12.37-2.62.56-4.51.56v.52c2.83,0,4.85.35,6.03,1.05,1.19.7,1.78,1.8,1.78,3.29,0,.26.03.58.09.97.06.39.13.82.21,1.31.43,2.52.76,4.1.99,4.72l-8.59,3.01c-.72-1.55-1.17-3.14-1.35-4.79-.19-1.65-.28-3.31-.28-5,0-.6-.04-1.04-.11-1.33-.07-.29-.24-.49-.49-.62-.26-.13-.67-.19-1.25-.19h-2.32c-.03.77-.04,1.79-.02,3.05.01,1.26.02,2.42.02,3.48v.69h-8.76ZM339.06,235.36c.72,0,1.29-.17,1.72-.52.43-.34.64-.92.64-1.72,0-.54-.1-.97-.3-1.29-.2-.31-.49-.54-.86-.67-.37-.13-.82-.19-1.33-.19h-1.68v4.38h1.8Z"/>
    </g>
  </g>
</svg>