<svg width="208" height="22" viewBox="0 0 208 22" fill="none" xmlns="http://www.w3.org/2000/svg">
<path fill-rule="evenodd" clip-rule="evenodd" d="M121.191 0H122.643C123.01 0 123.361 0.266027 123.361 0.532054V1.247C123.361 1.51303 123.01 1.69592 122.643 1.69592H121.207C120.757 1.69592 120.49 1.51303 120.49 1.247V0.532054C120.473 0.266027 120.74 0 121.191 0Z" fill="white"/>
<path fill-rule="evenodd" clip-rule="evenodd" d="M146.25 0H147.686C148.037 0 148.404 0.266027 148.404 0.532054V1.247C148.404 1.51303 148.037 1.69592 147.686 1.69592H146.234C145.783 1.69592 145.516 1.51303 145.516 1.247V0.532054C145.533 0.266027 145.8 0 146.25 0Z" fill="white"/>
<path fill-rule="evenodd" clip-rule="evenodd" d="M27.7809 21.1821L25.3434 20.9992C25.527 17.8568 25.0762 15.8948 23.991 14.7144C23.4706 14.2103 22.844 13.8279 22.1567 13.595C21.4695 13.362 20.7387 13.2844 20.0176 13.3676H2.4375V21.099H0V2.80963H2.4375V10.99H20.0176C20.6616 11.0452 21.3099 10.9609 21.918 10.7428C22.5262 10.5246 23.0796 10.1779 23.5403 9.72634C24.7924 8.56247 25.3434 6.23473 25.3434 2.80963H27.7809C27.7809 6.94967 26.9628 9.72634 25.2432 11.4389C25.0762 11.6218 24.7924 11.8047 24.5253 12.0707C25.0108 12.3161 25.4466 12.6487 25.8108 13.0517C27.7976 15.1134 27.881 18.4387 27.7976 21.1323L27.7809 21.1821ZM48.9671 2.59348C54.3764 2.59348 58.7004 5.4699 58.7004 9.06127V15.0801C58.7004 18.6715 54.3764 21.4482 48.9671 21.4482H40.6195C35.2102 21.4482 30.9697 18.6715 30.9697 15.0801V9.06127C30.9697 5.4699 35.2102 2.59348 40.6195 2.59348H48.9671ZM40.6195 19.0373H48.9671C52.9239 19.0373 56.2629 17.2416 56.2629 15.0801V9.06127C56.2629 6.91642 52.9239 5.02098 48.9671 5.02098H40.6195C36.646 5.02098 33.4072 6.91642 33.4072 9.06127V15.0801C33.4072 17.2416 36.646 19.0373 40.6195 19.0373ZM62.3233 8.0803C62.3233 10.5909 65.1281 13.2013 71.2553 13.2013H80.9051C86.1307 13.2013 88.1174 14.997 88.1174 16.0611C88.1174 17.1252 85.9137 19.0373 81.0554 19.0373H63.4753V21.4482H81.0554C87.7334 21.4482 90.6217 18.6715 90.6217 16.0611C90.6217 13.4507 87.5832 10.7738 80.9051 10.7738H71.322C67.0815 10.7738 64.8276 9.42706 64.8276 8.0803C64.8276 6.73354 66.8143 5.12074 71.322 5.02098L88.7352 5.12075V2.69324L71.322 2.59348C65.1949 2.69324 62.3901 5.46991 62.3901 8.0803H62.3233ZM117.418 2.51036H92.2412V4.93785H103.694V21.1821H106.132V4.93785H117.401V2.51036H117.418ZM189.641 5.28701H207.789V2.85952H189.624C188.478 2.83907 187.343 3.09983 186.321 3.61883C185.299 4.13782 184.421 4.89914 183.764 5.8357C182.553 7.63905 181.924 9.76819 181.961 11.9377C181.961 16.6929 184.566 21.5479 189.708 21.5479H207.789V19.1204H189.708C186.653 19.1204 184.833 16.4269 184.482 13.2845H207.856V10.857H184.416C184.564 9.56768 185.029 8.33448 185.768 7.26558C186.205 6.64529 186.789 6.14081 187.467 5.79599C188.144 5.45118 188.897 5.27646 189.658 5.28701H189.641ZM145.883 3.07566V14.2155C145.883 17.2749 140.123 18.9708 134.797 19.0706C129.204 19.0706 123.261 17.4079 123.111 14.0825V3.07566H120.69V14.2155C120.857 19.3366 127.902 21.4814 134.747 21.4814C141.592 21.4814 148.103 19.1537 148.27 14.2155V3.07566H145.883ZM179.607 9.72634C179.257 4.60532 171.493 2.27758 164.097 2.44385C156.434 2.7265 151.576 5.50315 151.576 9.6432V21.2819H154.014V9.6432C154.014 6.58389 159.239 5.05424 164.198 4.87135L164.281 21.1323H166.719L166.635 4.9711C171.861 5.23713 176.903 6.94969 177.17 9.80948L177.27 21.1323H179.707L179.607 9.72634Z" fill="white"/>
</svg>
