<svg width="506" height="49" viewBox="0 0 506 49" fill="none" xmlns="http://www.w3.org/2000/svg">
<path d="M474.184 20.535C473.894 20.2475 473.79 19.6094 473.113 19.0975C471.696 18.0318 467.75 17.9827 465.987 18.2351C464.681 18.4244 464.315 20.2896 464.183 21.4535C464.093 22.2108 463.962 23.7604 463.969 24.4756C463.976 25.1908 464.529 26.2215 465.324 26.3337C467.909 26.6983 473.756 24.9243 473.134 29.1945C472.954 30.4146 470.404 31.7819 469.249 31.9782C467.646 32.2587 464.764 31.6346 463.506 32.5462C462.835 33.03 462.663 35.449 462.358 36.4307C461.923 37.8401 461.301 39.1723 460.886 40.5887C461.418 41.6965 462.144 41.3249 463.001 41.4862C465.49 41.949 468.745 42.0331 471.24 41.402C473.251 40.8972 475.525 38.8427 477.371 40.5396C477.606 40.757 477.578 41.6194 478.249 41.4511C480.488 40.196 481.787 37.819 483.418 35.9118C487.082 31.6206 491.353 26.9578 494.705 22.4562C495.984 20.7383 496.772 20.0021 494.463 18.9924C492.922 18.3192 489.501 17.1623 487.946 17.6181C486.473 18.0458 486.861 22.4842 485.575 23.9637C485.34 24.2372 483.882 25.1698 483.529 25.2539C479.182 26.2636 480.301 20.4859 481.691 18.0107C483.08 15.5356 487.02 12.24 489.895 11.8614C493.924 11.3285 497.525 13.0884 501.513 12.8781C502.032 12.85 502.419 12.5836 502.834 12.5415C506.428 12.1699 506.794 15.185 504.796 17.562C499.91 23.9707 494.263 29.8536 489.383 36.2554C488.658 37.209 487.966 38.2117 487.441 39.2915C487.849 39.9576 488.575 40.2171 489.293 40.3923C491.298 40.8832 496.924 41.7246 498.776 41.402C500.525 41.1005 503.013 38.5272 504.271 40.6728C504.914 41.7667 504.568 42.6361 504.057 43.7229C503.055 45.8615 500.463 47.5794 498.168 47.8459C494.774 48.2385 491.263 47.0395 487.911 46.8362C485.831 46.71 483.902 47.0465 481.912 47.1727C481.069 47.2288 479.057 47.341 478.435 47.0255C477.281 46.4365 477.385 44.1156 476.286 44.1366C475.899 44.1437 472.719 46.4856 471.71 46.9133C466.962 48.9117 460.935 47.5934 456.041 47.1938C452.917 46.9343 449.586 46.9834 446.496 46.4435C442.861 45.8054 443.621 42.8324 446.144 41.1777C448.929 39.3476 453.463 42.0261 455.156 38.5412C456.249 36.2975 456.249 31.7678 456.56 29.1945C456.843 26.8105 457.396 24.1671 457.555 21.7901C457.735 19.2588 457.9 18.2071 455.06 18.5857C453.235 18.8311 451.182 20.556 450.906 22.4492C450.526 25.0856 452.095 27.0068 450.242 29.5171C449.544 30.4637 447.948 31.4944 446.766 31.3612C446.026 31.277 445.522 30.695 444.582 31.1859C443.953 31.5154 443.04 34.264 442.549 35.1826C439.322 41.1636 432.991 45.4198 426.438 46.7731C422.975 47.4883 414.343 47.5654 410.928 46.8362C407.514 46.107 406.463 43.4565 409.435 41.3039C411.509 39.7963 413.97 41.2548 415.234 38.4361C415.96 36.8304 415.843 35.1756 416.071 33.5629C416.527 30.2884 417.045 27.0209 417.377 23.7814C417.522 22.358 417.564 20.8575 417.716 19.4201C417.446 16.8818 414.357 18.3333 412.96 19.2939C411.702 20.1633 410.887 22.0004 410.832 23.515C410.818 23.9357 411.101 24.3213 411.101 24.7841C411.101 26.6773 411.315 27.9254 410.099 29.5171C408.143 32.0553 404.894 31.5715 404.459 28.1568C403.616 21.5376 408.979 15.8721 414.64 13.6003C420.301 11.3285 431.829 10.9288 437.628 13.3549C439.425 14.1052 441.395 15.5145 442.605 17.0571C443.531 18.2351 443.911 19.5393 444.63 20.7243C445.687 22.4492 447.167 19.2378 447.899 18.4034C455.336 9.99625 466.996 13.0955 476.922 12.5275C480.834 12.8571 479.361 18.3192 477.585 20.2545C476.859 21.0398 474.889 21.2361 474.171 20.528L474.184 20.535ZM421.386 41.1146C421.586 41.3109 425.284 41.8648 425.858 41.8228C426.798 41.7526 428.194 41.5843 429.155 41.4581C433.633 40.8691 437.297 34.0326 437.635 29.8676C438.23 22.5964 435.334 17.6531 427.821 16.9099C425.153 16.6434 424.69 17.583 424.358 20.1072C423.632 25.6886 423.639 32.0694 422.271 37.5105C421.953 38.7726 421.109 39.7613 421.379 41.1146H421.386Z" fill="black"/>
<path d="M50.4063 18.2982C49.7635 17.6601 48.6231 18.2141 47.9042 18.5156C46.2523 19.2027 44.1028 20.8856 43.8263 22.7928C43.46 25.303 45.0151 26.9227 43.3149 29.3418C41.6146 31.7608 39.2646 32.2026 37.35 29.6924C36.2303 30.7932 36.7626 32.5391 36.1958 33.9064C36.493 35.6874 35.0346 38.1275 36.6658 39.4668C37.6542 40.2802 39.7069 39.9436 39.5272 41.97C39.4512 42.8324 38.0136 44.0104 37.3017 44.4522C36.5068 44.95 33.0993 46.738 32.3667 46.8502C31.2746 47.0185 29.9891 46.8923 29.208 46.0228C28.6827 45.4408 28.8832 44.7256 27.7289 44.8238C26.8442 44.9009 24.6947 46.7871 23.4782 47.2639C20.2712 48.512 16.062 47.923 13.8087 45.1604C9.69626 40.1189 10.6915 30.5548 12.0393 24.5527C12.3711 23.0802 14.4999 18.9293 12.1361 18.5787C10.5879 18.3473 7.64348 19.5673 6.8279 20.9487C5.24511 23.6412 8.25171 27.5958 4.98938 30.1902C1.38838 33.058 -0.298084 29.2927 0.0405905 25.8289C0.821615 17.9406 8.52127 13.0674 15.7717 12.5065C17.5203 12.3732 20.52 12.3732 21.4324 14.1963C22.1996 15.7249 20.2505 19.8128 19.7597 21.6008C18.4534 26.3337 17.0711 33.8083 18.3636 38.5202C19.1584 41.4371 20.7066 42.5379 23.7409 42.1313C26.0287 41.8227 27.252 39.7613 28.0676 37.7699C30.6388 31.4593 30.0029 24.2722 31.2263 17.7513C31.6479 15.5075 32.892 13.2287 35.3664 12.8641C37.3846 12.5696 38.0896 13.5372 38.525 15.4023C38.2762 17.0992 37.8131 19.0835 37.8546 20.7734C37.8546 21.0608 37.7025 21.9443 38.3522 21.6148C39.0019 21.2852 39.3959 20.2545 39.8383 19.7567C42.8449 16.419 45.7616 14.007 50.1229 12.6888C54.1455 11.4687 62.2253 11.2443 66.0613 13.0253C71.9639 15.7669 72.0469 23.2696 67.8722 27.666C66.4346 29.1805 64.7135 29.1595 65.5429 32.0623C65.8332 33.079 69.1647 39.011 69.8766 39.7823C71.646 41.6755 72.662 40.0067 74.1826 39.7893C75.1088 39.6561 76.1732 39.9366 77.1062 39.7262C78.9862 39.3055 80.0368 37.1599 82.4836 39.4317C82.8637 39.7823 82.9812 40.3012 83.2922 40.6307C85.0133 42.4117 86.0915 43.4144 88.7871 43.162C91.8766 42.8745 93.1829 40.6728 92.5332 37.6577C91.8006 34.257 85.0755 30.5268 82.8222 27.6519C78.2743 21.8672 81.1289 15.4234 87.384 12.794C90.4597 11.5038 96.8047 11.1532 99.4035 13.5232C101.436 15.3673 99.5832 20.7593 97.0604 20.9557C94.5376 21.152 94.8694 17.0291 91.7591 16.5663C87.6812 15.9633 85.2759 18.5576 87.9438 22.1196C90.8122 25.9551 97.0466 28.4232 98.7399 33.3806C102.548 44.5083 86.2228 51.7725 78.8204 45.8475C77.7007 44.95 77.0648 43.176 75.323 43.9754C73.9545 46.2051 71.9639 47.944 69.2062 47.5233C66.4484 47.1026 62.8197 41.5353 61.4581 39.2284C60.5181 37.9102 59.5228 34.804 58.5828 33.7311C57.947 33.0019 57.1106 32.8196 56.4195 33.5559C55.673 34.3482 55.6108 36.5288 55.279 37.7769C54.9473 39.025 54.0142 40.4975 53.8207 41.36C53.5304 42.6852 55.0233 44.5994 53.2885 46.1911C52.5696 46.8572 50.2473 47.5514 49.2935 47.5514C48.7336 47.5514 48.2429 47.2008 47.6485 47.1727C45.2363 47.0676 42.6444 47.7547 41.4763 44.9991C42.133 40.3222 46.9573 42.6151 48.3881 38.1906C49.252 35.5262 49.1414 32.6233 49.4663 29.8606C49.8533 26.6072 50.4547 23.3257 50.7864 20.0722C50.8279 19.6304 50.6689 18.5576 50.3994 18.2912L50.4063 18.2982ZM58.6312 17.2815C57.864 17.5059 57.553 19.0064 57.4355 19.7707C57.2143 21.2291 57.2074 22.9821 57.083 24.4616C57.007 25.4152 56.4057 25.5274 57.1383 26.7825C58.5068 29.1314 62.3497 26.6072 63.2344 24.6509C63.9671 23.0241 64.2228 21.3413 63.4694 19.6865C62.8543 18.3263 60.0481 16.8608 58.6243 17.2815H58.6312Z" fill="black"/>
<path d="M152.651 41.1216C155.838 41.9209 159.473 42.1663 162.687 41.395C164.063 41.0655 165.86 39.9506 167.138 39.8454C168.638 39.7262 169.219 41.6615 168.852 42.9376C168.617 43.758 163.959 46.6258 162.929 47.0255C160.075 48.1334 156.204 48.0352 153.128 47.8809C152.61 47.8529 152.195 47.5654 151.801 47.5444C148.221 47.341 141.537 47.4953 138.586 45.8054C138.033 45.4899 137.515 44.6625 136.83 44.5573C135.296 44.326 132.172 47.6355 129.4 46.71C128.294 46.3454 127.762 44.7046 126.601 44.8238C126.062 44.8799 123.263 46.9764 122.129 47.3761C116.842 49.2412 112.066 46.128 110.58 40.8972C109.218 36.1081 109.889 30.0429 110.918 25.2329C111.368 23.1363 112.356 21.1099 112.142 18.9433C110.027 18.0318 106.315 19.1957 105.589 21.5096C105.513 21.762 105.202 23.2696 105.202 23.4659C105.202 23.8515 105.527 24.2793 105.541 24.7981C105.583 26.6563 105.721 27.9955 104.539 29.5311C103.357 31.0667 101.747 31.5014 99.9426 30.646C98.8505 28.4302 98.9542 24.9664 99.7145 22.6175C101.318 17.6251 107.214 13.9439 112.073 12.9412C113.821 12.5836 120.111 11.7913 120.463 14.3716C120.816 16.9519 119.192 19.7777 118.549 22.2038C117.326 26.8386 115.881 35.0003 117.637 39.4528C118.093 40.6097 118.971 41.956 120.298 42.1383C122.337 42.4187 124.251 42.0892 125.585 40.4414C128.184 37.2441 128.91 30.1832 129.407 26.1444C129.774 23.1644 129.635 19.0274 130.561 16.2087C131.246 14.1332 133.699 12.5415 135.842 12.9061C138.475 14.5048 137.003 17.4077 136.727 19.7707C136.132 24.742 135.324 30.3585 135.047 35.2317C134.999 36.1152 134.93 38.8708 135.448 39.3967L139.263 41.0795C140.784 40.9112 142.602 40.6868 144.115 40.3923C146.334 39.9646 147.295 37.6087 147.654 35.5682C148.325 31.7398 147.62 27.7291 148.401 23.8726C149.424 18.8311 152.928 14.6451 157.614 12.6888C159.777 11.7843 164.291 10.9849 165.915 13.0253C167.691 15.2481 165.099 17.9546 162.749 18.2421C161.091 18.4455 159.335 17.2254 157.51 17.9757C156.218 18.5086 155.395 21.124 155.278 22.4422C154.842 27.3644 155.52 33.1071 153.799 37.7699C153.391 38.8848 152.403 39.8384 152.644 41.1216H152.651Z" fill="black"/>
<path d="M383.876 24.6369C383.544 24.7 383.067 24.4195 382.874 24.8472C382.597 25.4572 382.348 25.5694 382.058 25.9971C378.589 31.1228 375.686 36.599 372.541 41.9209C371.352 43.9403 368.103 48.498 365.615 45.6933C364.717 44.6836 364.855 43.4495 364.613 42.3346C363.251 36.017 362.146 29.4329 360.162 23.2906C359.478 21.18 358.496 17.4918 355.683 19.4411C354.778 20.0722 353.983 21.6849 352.559 21.2432C350.437 20.584 352.421 16.2788 353.34 15.0447C356.381 10.9569 361.821 10.5151 364.572 15.1078C367.861 20.5981 367.986 27.7361 370.011 33.4857C370.999 36.3045 372.624 33.5629 373.529 32.1605C375.153 29.6503 378.54 22.961 378.215 20.1072C378.049 18.6558 377.331 17.8635 377.635 16.1245C377.863 14.8414 379.757 12.6958 381.049 12.5205C383.081 12.247 384.809 14.1963 385.127 16.1175C385.238 16.7837 384.975 19.6024 385.694 19.5814C388.403 17.4217 390.795 14.8344 394.147 13.6844C395.958 13.0604 399.745 12.2681 401.556 12.5836C403.948 13.0043 404.632 14.7502 404.431 17.0501C404.272 18.8171 403.671 20.9557 403.457 22.7928C402.911 27.5748 402.849 32.8126 401.715 37.5175C401.515 38.3659 400.457 40.5045 400.457 40.9603C400.457 42.1032 402.213 42.7343 401.729 44.943C401.376 46.5697 398.446 47.4813 396.981 47.5514C396.213 47.5864 395.681 47.2078 395.004 47.1797C393.165 47.0886 390.11 47.6145 388.673 46.1981C387.235 44.7817 388.389 43.1129 389.675 42.1383C391.624 40.6658 393.525 41.5914 394.665 38.4501C395.633 35.7926 395.508 32.6093 395.826 29.8676C396.11 27.4836 396.67 24.8682 396.822 22.4632C396.925 20.8365 397.209 18.3964 395.004 18.5717C392.661 18.761 390.49 20.3316 390.186 22.7928C389.979 24.4265 390.746 25.7167 390.442 27.4275C390.041 29.6783 387.726 31.6627 385.41 30.9825C383.821 30.5197 383.758 26.0252 383.869 24.6298L383.876 24.6369Z" fill="black"/>
<path d="M332.722 2.15707C334.015 3.51736 332.473 6.14678 331.126 6.96716C328.637 8.4817 325.645 5.90838 322.845 7.99088C321.187 9.22495 320.357 12.794 319.929 14.7923C318.622 20.9206 318.381 27.3434 317.517 33.5488C317.164 36.0871 316.846 39.3265 315.934 41.7035C315.471 42.9096 314.213 45.4268 312.996 45.7914C310.501 46.5487 309.492 42.2154 308.635 40.5606C307.266 37.9242 304.529 34.5445 302.601 32.2096C301.502 30.8773 300.341 29.5591 299.111 28.3461C298.869 28.6406 298.454 28.8509 298.337 29.2366C297.784 31.0316 297.936 33.619 297.611 35.5682C297.334 37.216 295.731 40.7359 296.014 41.9209C296.104 42.3066 296.484 42.6431 296.574 43.0358C296.989 44.8589 296.021 46.4505 294.328 47.0395C293.865 47.2008 292.31 47.5303 291.826 47.5514C291.065 47.5864 290.533 47.2148 289.849 47.1798C287.755 47.0606 282.958 47.5163 284.181 43.8071C285.121 40.9533 289.483 42.1803 290.844 38.4501C291.777 35.8838 291.694 32.2517 292.005 29.5311C292.282 27.1471 292.835 24.5106 293.001 22.1266C293.132 20.2335 293.277 18.3333 290.844 18.5787C288.757 18.789 286.317 20.1914 286.027 22.4562C285.736 24.721 286.939 26.3197 285.833 28.6546C284.437 31.5996 280.262 32.2797 279.716 28.5004C278.369 19.1186 288.584 11.7001 297.148 12.4995C301.039 12.8641 300.604 17.0782 301.875 19.8198C303.071 22.4141 307.764 28.6686 309.907 30.5197C312.049 32.3709 311.731 28.3882 311.911 27.1611C313.183 18.4384 313.895 10.1295 321.021 4.09233C323.73 1.79246 328.105 0.116644 331.568 1.47693C331.713 1.53302 332.688 2.09397 332.736 2.14305L332.722 2.15707Z" fill="black"/>
<path d="M217.082 41.8788C217.234 41.7246 218.658 40.9042 218.886 40.8481C221.181 40.3152 222.861 41.0374 223.821 38.1135C224.713 35.3929 224.651 31.9922 224.976 29.1875C225.238 26.9157 225.812 24.3704 225.95 22.0986C226.005 21.2221 226.247 18.172 225.432 17.9336C222.785 17.6321 219.674 20.0722 219.336 22.7928C219.073 24.8893 219.937 27.0068 219.066 28.9141C218.451 30.2673 216.122 31.9642 214.67 31.1999C212.037 29.8186 213.039 24.6719 213.951 22.3791C217.456 13.5232 228.874 10.8727 237.396 11.8544C240.368 12.198 244.169 14.1122 245.054 17.2114C245.759 19.6655 245.22 22.3089 243.831 24.4195C243.25 25.296 241.273 26.7264 241.204 27.4977C241.108 28.5635 242.303 29.1034 242.884 29.8466C249.429 38.2257 241.778 44.9079 233.691 46.7801C230.657 47.4813 221.886 47.5374 218.893 46.7801C217.767 46.4926 216.004 45.7143 216.004 44.326C216.004 43.9052 216.785 42.1733 217.075 41.8788H217.082ZM234.486 17.2745C233.885 17.3867 233.27 17.9686 233.083 18.5647C232.931 21.0538 230.774 28.1077 235.592 25.8219C237.907 24.721 239.836 20.8575 237.921 18.7329C237.403 18.158 235.212 17.1413 234.493 17.2745H234.486ZM231.984 31.7608C231.286 32.448 231.148 36.045 230.871 37.195C230.595 38.3449 229.351 40.3012 229.627 41.2828C230.09 42.1243 230.989 41.7035 231.756 41.8157C232.198 41.8788 232.578 42.1453 233.09 42.1663C233.601 42.1874 235.758 41.8227 236.262 41.6545C236.94 41.4371 238.198 40.1469 238.419 39.4668C239.331 36.6481 237.5 33.4016 235.032 32.0974C234.217 31.6627 232.724 31.0386 231.984 31.7678V31.7608Z" fill="black"/>
<path d="M185.15 17.9126C182.932 17.3937 180.022 17.3025 177.845 18.0668C174.237 19.3359 174.451 21.7901 174.52 25.1557C174.534 25.6746 174.852 26.1023 174.859 26.488C174.859 28.1498 173.055 30.7862 171.382 31.0246C167.829 31.5365 167.65 27.084 167.885 24.4546C168.355 19.2588 173.103 15.0868 177.755 13.6003C182.406 12.1138 187.701 12.0507 192.29 12.5065C193.907 12.6677 195.463 12.233 196.769 13.6845C198.186 15.2481 196.99 17.3516 196.769 19.0905C196.119 24.2021 196.168 31.4944 197.107 36.5639C197.26 37.3773 197.778 39.565 198.248 40.1189C198.835 40.813 201.151 41.2898 201.365 42.0051C201.884 43.758 200.812 44.6485 199.52 45.4478C196.921 47.0535 193.41 48.5541 191.848 44.922C191.074 43.1199 190.804 38.422 189.954 37.4193C188.959 36.2484 183.996 36.5639 182.821 37.5876C182.372 37.9733 180.526 41.0725 180.485 41.6404C180.423 42.5169 181.273 43.4495 181.121 44.2558C180.741 46.3243 178.239 47.3901 176.365 47.5303C175.419 47.6005 173.096 47.306 172.046 47.1727C170.269 46.9413 168.424 45.0972 169.585 43.3513C170.974 41.2618 174.409 42.1453 176.13 38.8848C178.729 33.9625 179.856 27.8693 182.538 22.8348C182.938 22.0916 185.641 18.3823 185.136 17.9055L185.15 17.9126ZM189.463 23.2906C188.903 23.2415 188.717 23.2065 188.309 23.6342C187.459 24.5177 185.523 29.3908 185.841 30.4987C186.111 31.4313 188.634 31.0597 189.422 30.646C190.161 28.2269 189.698 25.7447 189.463 23.2836V23.2906Z" fill="black"/>
<path d="M327.732 40.3783C328.223 39.8805 329.287 37.5526 329.64 36.7602C331.755 31.9992 332.937 26.7404 335.494 22.1687C335.853 21.5306 338.307 18.4314 337.761 17.9126C334.651 17.1202 328.513 17.2324 327.297 20.9206C327.179 21.2712 326.827 22.8418 326.827 23.1223C326.827 23.508 327.158 23.9357 327.165 24.4546C327.193 27.098 327.545 28.858 325.147 30.5127C323.039 31.9712 320.848 30.4847 320.516 28.1638C319.576 21.6639 323.364 16.377 329.135 14.028C333.904 12.0858 341.797 11.8824 346.878 12.5275C348.882 12.7799 349.67 13.7966 350.05 15.7319C349.062 20.6121 348.751 25.885 349.034 30.8703C349.145 32.8336 349.594 36.9636 350.195 38.7796C350.333 39.1933 350.866 40.203 351.19 40.4625C351.771 40.9393 353.485 41.1777 353.879 41.7737C355.545 44.2769 349.746 46.9343 347.88 47.1657C343.608 47.7056 343.774 41.0444 343.014 38.3239C342.343 35.9328 337.035 36.4096 335.452 37.5876C334.879 38.0224 333.324 40.6518 333.172 41.3459C332.992 42.1593 333.642 43.4144 333.455 44.6485C333.268 45.8826 332.211 46.6679 331.153 47.0255C329.204 47.6776 326.695 47.5023 324.677 47.1727C321.325 46.6258 321.373 43.4004 324.186 41.984C325.195 41.4792 326.916 41.2057 327.739 40.3713L327.732 40.3783ZM342.081 23.2906C341.521 23.2415 341.334 23.2065 340.927 23.6342C340.063 24.5317 338.362 28.6125 338.411 29.8536C338.431 30.3164 338.438 30.8493 338.957 30.9965C340.609 31.4663 342.115 30.9475 342.35 29.1104C342.399 28.7388 342.074 28.5564 342.074 28.5074V23.2906H342.081Z" fill="black"/>
<path d="M262.803 41.1146C266.066 41.956 269.805 42.1803 273.088 41.3179C274.761 40.8762 278.776 38.2678 279.046 41.3109C279.157 42.5239 278.092 43.7089 277.221 44.5083C275.721 45.8896 272.521 47.5093 270.51 47.7968C266.162 48.4068 261.566 47.5654 257.302 47.2078C254.426 46.9694 251.24 47.0255 248.42 46.4575C244.881 45.7493 244.895 42.9026 247.736 41.1847C251.33 39.004 255.926 42.9516 257.412 36.8654C258.138 33.8924 258.173 29.9448 258.484 26.8456C258.732 24.4265 259.334 22.2669 259.147 19.7567C259.03 18.193 257.703 18.4174 256.382 18.6558C254.309 19.0344 252.705 21.0679 252.505 23.1433C252.408 24.132 252.781 24.6439 252.844 25.4713C252.996 27.5327 252.539 29.2857 250.832 30.5268C247.404 33.0089 245.946 29.3277 246.208 26.1724C246.471 23.0171 248.296 19.371 250.673 17.2394C258.428 10.2767 269.045 13.1235 278.562 12.5205C279.322 12.4504 280.795 13.418 280.995 14.0911C281.52 15.9212 280.311 20.1633 278.403 20.7944C275.638 21.7059 275.5 18.5997 272.901 18.2631C272.01 18.151 267.648 18.1229 267.096 18.4104C265.934 19.2728 266.259 20.2896 266.1 21.4395C265.962 22.4141 265.375 24.8402 265.927 25.6746C266.964 27.2312 272.971 25.3591 274.422 27.1541C276.115 29.2366 272.936 31.7819 270.911 32.0483C269.128 32.2797 266.404 31.4383 265.105 32.8897C264.352 33.7311 264.31 35.5963 263.965 36.7813C263.536 38.2537 262.638 39.614 262.81 41.1286L262.803 41.1146Z" fill="black"/>
</svg>
